# xmcd
#
# Track frame offsets:
#	150
#	20100
#	29385
#	39207
#	48672
#	58165
#	70322
#	79027
#	89697
#	103355
#	115582
#	127097
#	140537
#	153052
#	163277
#	175027
#	183757
#	192737
#	201784
#
# Disc length: 2818 seconds
#
# Revision: 1
# Processed by: cddbd v1.5.2PL0 Copyright (c) Steve Scherf et al.
# Submitted via: audiograbber 1.83.01
#
DISCID=130b0013
DTITLE=Isley Brothers - Shout - The RCA Sessions
DYEAR=1900
DGENRE=Oldies
TTITLE0=Shout - Part 1 and 2
TTITLE1=Yes Indeed
TTITLE2=Respectable
TTITLE3=Open Up Your Heart
TTITLE4=Say You Love Me Too
TTITLE5=Turn To Me
TTITLE6=I'm Gonna Knock On Your Door
TTITLE7=Not One Minute More
TTITLE8=St. Louis Blues
TTITLE9=Tell Me Who
TTITLE10=When The Saints Go Marching In
TTITLE11=Ring-A-Ling-A-Ling (Let The Wedding Bells Ring)
TTITLE12=That Lucky Old Sun
TTITLE13=Rock Around The Clock
TTITLE14=Gypsy Love Song (Slummber On, My Little Gypsy Sweetheart)
TTITLE15=How Deep Is The Ocean
TTITLE16=He's Got The Whole World In His Hands
TTITLE17=Without A Song
TTITLE18=Respectable  (Single Version)
EXTD=
EXTT0=Isley Brothers - Shout
EXTT1=Isley Brothers - Shout
EXTT2=Isley Brothers - Shout
EXTT3=Isley Brothers - Shout
EXTT4=Isley Brothers - Shout
EXTT5=Isley Brothers - Shout
EXTT6=Isley Brothers - Shout
EXTT7=Isley Brothers - Shout
EXTT8=Isley Brothers - Shout
EXTT9=Isley Brothers - Shout
EXTT10=Isley Brothers - Shout
EXTT11=Isley Brothers - Shout
EXTT12=Isley Brothers - Shout
EXTT13=Isley Brothers - Shout
EXTT14=Isley Brothers - Shout
EXTT15=Isley Brothers - Shout
EXTT16=Isley Brothers - Shout
EXTT17=Isley Brothers - Shout
EXTT18=Isley Brothers - Shout
PLAYORDER=
